<svg width="1106" height="718" viewBox="0 0 1106 718" fill="none" xmlns="http://www.w3.org/2000/svg">
<g filter="url(#filter0_f_765_859)">
<path d="M142.5 121L313.5 253" stroke="url(#paint0_radial_765_859)" stroke-width="40" stroke-linecap="round"/>
<path d="M832.5 417L941.5 501" stroke="url(#paint1_radial_765_859)" stroke-width="40" stroke-linecap="round"/>
<path d="M678.5 514L787.5 598" stroke="url(#paint2_radial_765_859)" stroke-width="40" stroke-linecap="round"/>
<path d="M700.5 174L871.5 306" stroke="url(#paint3_radial_765_859)" stroke-width="40" stroke-linecap="round"/>
<path d="M362.584 329.523L548.488 369.102C556.245 370.754 559.085 380.346 553.477 385.954L409.252 530.18C403.686 535.746 394.169 532.997 392.428 525.32L350.75 341.515C349.135 334.396 355.445 328.003 362.584 329.523Z" fill="url(#paint4_radial_765_859)" fill-opacity="0.5"/>
<path d="M512.584 119.523L698.488 159.102C706.245 160.754 709.085 170.346 703.477 175.954L559.252 320.18C553.686 325.746 544.169 322.997 542.428 315.32L500.75 131.515C499.135 124.396 505.445 118.003 512.584 119.523Z" fill="url(#paint5_radial_765_859)" fill-opacity="0.5"/>
<path d="M587.5 359L662.5 417" stroke="url(#paint6_radial_765_859)" stroke-width="40" stroke-linecap="round"/>
<path d="M120.5 431L194.5 489" stroke="url(#paint7_radial_765_859)" stroke-width="40" stroke-linecap="round"/>
<path d="M513.5 151L587.5 209" stroke="url(#paint8_radial_765_859)" stroke-width="40" stroke-linecap="round"/>
<circle cx="962" cy="143.5" r="43.5" fill="url(#paint9_radial_765_859)" fill-opacity="0.7"/>
</g>
<defs>
<filter id="filter0_f_765_859" x="-19.5" y="0" width="1125" height="720" filterUnits="userSpaceOnUse" color-interpolation-filters="sRGB">
<feFlood flood-opacity="0" result="BackgroundImageFix"/>
<feBlend mode="normal" in="SourceGraphic" in2="BackgroundImageFix" result="shape"/>
<feGaussianBlur stdDeviation="50" result="effect1_foregroundBlur_765_859"/>
</filter>
<radialGradient id="paint0_radial_765_859" cx="0" cy="0" r="1" gradientUnits="userSpaceOnUse" gradientTransform="translate(228 187) rotate(90) scale(66 85.5)">
<stop stop-color="#1E3A8A"/>
<stop offset="1" stop-color="#1E3A8A" stop-opacity="0"/>
</radialGradient>
<radialGradient id="paint1_radial_765_859" cx="0" cy="0" r="1" gradientUnits="userSpaceOnUse" gradientTransform="translate(887 459) rotate(90) scale(42 54.5)">
<stop stop-color="#1E3A8A"/>
<stop offset="1" stop-color="#1E3A8A" stop-opacity="0"/>
</radialGradient>
<radialGradient id="paint2_radial_765_859" cx="0" cy="0" r="1" gradientUnits="userSpaceOnUse" gradientTransform="translate(733 556) rotate(90) scale(42 54.5)">
<stop stop-color="#1E3A8A"/>
<stop offset="1" stop-color="#1E3A8A" stop-opacity="0"/>
</radialGradient>
<radialGradient id="paint3_radial_765_859" cx="0" cy="0" r="1" gradientUnits="userSpaceOnUse" gradientTransform="translate(824.774 240.029) rotate(63.103) scale(97.0408 120.216)">
<stop stop-color="#93C5FD"/>
<stop offset="1" stop-color="#1E3A8A" stop-opacity="0"/>
</radialGradient>
<radialGradient id="paint4_radial_765_859" cx="0" cy="0" r="1" gradientUnits="userSpaceOnUse" gradientTransform="translate(562.389 353.817) rotate(-179.419) scale(151.553 178.937)">
<stop stop-color="#1E3A8A"/>
<stop offset="1" stop-color="#1C1B4E"/>
</radialGradient>
<radialGradient id="paint5_radial_765_859" cx="0" cy="0" r="1" gradientUnits="userSpaceOnUse" gradientTransform="translate(712.389 143.817) rotate(-179.419) scale(151.553 178.937)">
<stop stop-color="#1E3A8A"/>
<stop offset="1" stop-color="#1C1B4E"/>
</radialGradient>
<radialGradient id="paint6_radial_765_859" cx="0" cy="0" r="1" gradientUnits="userSpaceOnUse" gradientTransform="translate(642.006 388.013) rotate(63.145) scale(42.6233 52.7459)">
<stop stop-color="#93C5FD"/>
<stop offset="1" stop-color="#1E3A8A" stop-opacity="0"/>
</radialGradient>
<radialGradient id="paint7_radial_765_859" cx="0" cy="0" r="1" gradientUnits="userSpaceOnUse" gradientTransform="translate(115.933 438.162) rotate(45.9679) scale(65.6574 77.4926)">
<stop stop-color="#1E3A8A"/>
<stop offset="1" stop-color="#1C1B4E"/>
</radialGradient>
<radialGradient id="paint8_radial_765_859" cx="0" cy="0" r="1" gradientUnits="userSpaceOnUse" gradientTransform="translate(508.933 158.162) rotate(45.9679) scale(65.6574 77.4926)">
<stop stop-color="#1E3A8A"/>
<stop offset="1" stop-color="#1C1B4E"/>
</radialGradient>
<radialGradient id="paint9_radial_765_859" cx="0" cy="0" r="1" gradientUnits="userSpaceOnUse" gradientTransform="translate(913.13 110.743) rotate(52.8473) scale(88.8381 101)">
<stop stop-color="#1E3A8A"/>
<stop offset="1" stop-color="#1C1B4E"/>
</radialGradient>
</defs>
</svg>
