<?xml version="1.0" encoding="utf-8"?><!-- Uploaded to: SVG Repo, www.svgrepo.com, Generator: SVG Repo Mixer Tools -->
<svg fill="#000000" width="800px" height="800px" viewBox="0 0 24 24" id="coffee-left-2" data-name="Flat Color" xmlns="http://www.w3.org/2000/svg" class="icon flat-color"><path id="primary" d="M4,10a62.37,62.37,0,0,0,.84,10.35,2,2,0,0,0,2,1.63h6.38a2,2,0,0,0,2-1.62c.13-.75.32-1.92.48-3.51l1.9-.47a3.25,3.25,0,0,0-.79-6.4H16a2,2,0,0,0-.58-1.41A2,2,0,0,0,14,8H6a2,2,0,0,0-2,2Zm11.81,4.75c.06-.85.11-1.76.15-2.77h.79a1.25,1.25,0,0,1,.31,2.46Z" style="fill: rgb(0, 0, 0);"></path><path id="secondary" d="M5,5V3A1,1,0,0,1,7,3V5A1,1,0,0,1,5,5ZM9,5V3a1,1,0,0,1,2,0V5A1,1,0,0,1,9,5Zm4,0V3a1,1,0,0,1,2,0V5a1,1,0,0,1-2,0Z" style="fill: rgb(44, 169, 188);"></path></svg>